<svg xmlns="http://www.w3.org/2000/svg" xmlns:xlink="http://www.w3.org/1999/xlink" width="378.65" height="53.807" viewBox="0 0 378.65 53.807">
  <defs>
    <linearGradient id="linear-gradient" y1="0.5" x2="1" y2="0.5" gradientUnits="objectBoundingBox">
      <stop offset="0" stop-color="#b5923e"/>
      <stop offset="0.368" stop-color="#ebd964"/>
      <stop offset="0.66" stop-color="#d5bb65"/>
      <stop offset="1" stop-color="#b5923e"/>
    </linearGradient>
  </defs>
  <g id="グループ_141" data-name="グループ 141" transform="translate(-51.35 -591)">
    <text id="一般社団法人_日本建築学会" data-name="一般社団法人
日本建築学会" transform="translate(111 612)" fill="#c1a45e" font-size="12" font-family="YuGo-Bold, YuGothic" font-weight="700"><tspan x="-36" y="0">一般社団法人</tspan><tspan x="-36" y="18">日本建築学会</tspan></text>
    <text id="東京大学_木質構造_研究会員" data-name="東京大学
木質構造
研究会員" transform="translate(239 602)" fill="#c1a45e" font-size="12" font-family="YuGo-Bold, YuGothic" font-weight="700"><tspan x="-24" y="0">東京大学</tspan><tspan x="-24" y="18">木質構造</tspan><tspan x="-24" y="36">研究会員</tspan></text>
    <text id="一般社団法人_日本ツーバイフォー_建築協会" data-name="一般社団法人
日本ツーバイフォー
建築協会" transform="translate(371 604)" fill="#c1a45e" font-size="11" font-family="YuGo-Bold, YuGothic" font-weight="700"><tspan x="-33" y="0">一般社団法人</tspan><tspan x="-49.5" y="18">日本ツーバイフォー</tspan><tspan x="-22" y="36">建築協会</tspan></text>
    <path id="パス_24" data-name="パス 24" d="M5.4,47.634l.189-.2.65-.663h0l.26-.267.046-.1.085-2.5-.013-.065-1.984-4.67-.286.052-.026.52h0l-.234,4.918.007.039.007.02h0l.807,2.634-.325-.176-.1-.072L1.9,45.292l.2-.156h0l.7-.546.059-.1.358-2.361v-.007l.124-.807V41.26l-.969-3.968-.293-.007L1.549,39.1l-.02.059L.912,41.917v.059l.455,2.5.091.5-.852-.6L-1.027,42.17l.572-.325h0l.663-.377.072-.091.729-2.641.007-.046L.977,36.8h0L.938,35.113l-.26-.1-.494.546h0l-.429.481-.033.052-1.028,3.2-.007.039-.039,1.607-.02.761-.742-1.008L-3.18,38.762l1.509-.755.078-.091.742-2.426.111-1.1h0l.176-1.769-.273-.1-.618.826h0l-1.815,2.446-.026.072-.228,2.264-1.509-2.738.755-.429h0l.592-.332.046-.039,1.418-1.919.026-.046.735-2.537-.241-.156-1.886,1.555h0L-4.1,31.9l-.046.065-1.041,2.791L-5.749,31.3l1.19-.065.078-.026,1.737-1.19h0l.15-.1.052-.059L-2,28.725h0l.735-1.542-.2-.2-.794.41h0l-2.485,1.281-.065.059-.592,1.08h0l-.442.813-.429-2.621.065-.618,1.646-.085h0l.976-.052.111-.059.566-.729,1.977-2.55-.182-.228-2.049.9h0l-1.353.592-.039.026-.67.579-.9.774.325-3.135.69.768.15.046,1.314-.358h0l.475-.13h0l.67-.182.059-.033,2.654-2.2L.1,21.069l-2.81.221-1.106.085h0l-.143.013-.078.026-1.691,1.21.156-1.5.436-1.379.917.208h0l1.392.319.1-.013.13-.072h0l2.042-1.106h0l.15-.078.9-.657h0l.637-.468-.1-.273-.826.052L-1,17.738l-1.177.078h0l-.631.039-.072.02-1.438.878-.637.39.963-3.025,1.21.755.124.02.468-.137h0l.852-.254.436-.13h0l1.125-.332.046-.02L2.356,14.5l-.072-.273L.977,14.089l-1.184-.124h0L-.5,13.933l-.052.007-2.14.546-.039.02-.93.572.494-1.548.514-1.021,1.821.748.1.007,1.242-.325,1.379-.358.046-.02.306-.2h0l1.373-.872-.072-.28-1-.052h0L1.283,11.1h0l-.794-.046-1.425.072-.052.013-1.262.559.982-1.945.013-.013.306.377.1.052.9.117h0l.572.078.059-.007,1.34-.345h0l.8-.2.039-.02.54-.332h0l1.457-.911-.091-.28-1.125.072h0l-.82.052h0L2.649,8.4h0L.873,8.521l-.039.007-1.568.553L1.035,6.9l.319.286.1.039,1.3-.013L2.8,7.2,3.6,6.973h0l.865-.247h0l.683-.2L5.205,6.5l.937-.755-.1-.267-1.262.065-.65.033L2.954,5.64l-.046.007L1.673,6.1l.26-.319L3.058,4.436l.3-.091h0l1.281-.39L4.7,3.922,6.408,2.368l.039-.052L7.332.234h0L7.365.156,7.163,0,4.008,1.958l-.052.059L2.831,4.189l-.9.7-.221.241h0l-.2.221.1-.189.013-.046.345-1.7L1.979,3.3h0L2.1,2.016h0L2.213.735,1.927.663l-.65,1.457-.8,1.8h0l-.059.124L.4,4.111.476,6.485-.617,7.7-.4,5.809v-.02l-.02-1.132h0L-.461,2.843h0l-.02-.794L-.766,1.99l-.429.943h0L-1.5,3.6-1.95,5.327h0L-2.275,6.6v.065l.5,2.66h0l.007.02-1.086,2,.221-.943h0l.033-.137.007-.046-.137-2.6-.007-.046L-3.3,6.114l-.768-2L-4.3,4.059l-.052.1-.2,2.283-.02.28h0L-4.78,9.5l.02.085.982,1.756.462.826H-3.3l-1.054,1.925.013-.078.059-.345v-.052l-.455-2.5-.69-1.548h0l-.319-.716h0L-6.3,7.637l-.286.039-.273,1.958v.033l.059.846h0l.163,2.355.02.072.085.137h0l1.613,2.582-.742,2.257.078-.579-.007-.072-.95-2.66-.02-.039-.15-.2h0l-1.106-1.47h0l-.553-.735-.273.085-.111,2.069.007.039.013.059h0l.69,2.992.039.072.293.306h0l1.6,1.659h0L-6.6,22.708l-.169-1.841-.013-.046L-7.707,18.7h-.007l-.033-.052-1.893-1.7h0l-.384-.345-.247.143.26,1.21h0l.735,3.408.046.078.553.494h0l1.9,1.711.033-.02L-6.92,24.77-7,26.9l-.351-1.685-.02-.046-.208-.332h0l-.254-.4h0l-.729-1.158-.026-.033-1.216-1.106h0L-10.894,21.1l-.247.143.286,1.275.312,1.444.163.41h0l.514,1.294h0l.325.82.072.078,2.4,1.229.026-.02-.091,2.342.007.039.039.156-.312-.781-.033-.052L-9.04,27.827l-.046-.033-2.121-.9h0l-.6-.254-.2.2.215.494h0l.774,1.789,1.477,2.016.085.059.592.156h0l.67.176h0l.768.2h0l.722.189.007-.007.735,3.025-.429-.807-.046-.052-.358-.267h0L-8.149,32.8l-.26-.2-.033-.02-2.1-.846-1.112-.449-.182.221.442.716h0l.865,1.392.026.033,1.158,1.073h0l.742.69h0l.1.091.085.039,2.673.293.007-.013.072.286.013.033,1,2.082L-5.8,37.441l-.046-.02-.371-.1-1.555-.4-1.8-.052h0l-1-.026-.111.254.462.5h0l1.314,1.418.059.039,3.044,1.08h.1l.585-.2,1.119-.371.358.735.02.026L-2,42.437l-.033-.02-2.517-1.1h0l-.384-.169-.085-.013-2.264.338-.924.143h0l-.69.1-.052.28,3.252,1.945.078.02.69.007h0l1.431.013.488.007.1-.039,1.242-1.1.95,1.229.02.02,1.73,1.483-1.574-.592-.059-.007-1.951.033h0l-1.19.02-.039.007-.7.208h0l-1.49.449-.02.28,2.725,1.268.059.013,1.607.026.624.013h0l.917.013.091-.033.306-.228h0l1.281-.969L4.06,48.174l.007-.007.026.033.319.15L1.517,48h0L1,47.946l-.085.013-.429.221h0l-1.626.846-1.438.742.013.273,1.665.676.052.013.429.007h0l2.934.039.1-.039.924-.846h0l.247-.228h0l1.106-1-.026-.091,3.3,1.548,2.231.917.065.013L11.482,51l.052-.286L8.822,49.5ZM-3.362,31.691l1.47-1.21-.559,1.925-.033.117L-3.869,34.4l-.254.143.306-1.158Zm-.514.423.117-.1-.722,2.725-.468.267Zm1.639-3.864.163-.6.338-.176-.514,1.086-.02.007-.052.02Zm-2.342.683,2.14-1.106-.163.611-.072.273-1.971.774-.306.117Zm-.592,1.093,1.5-.592.9-.358-.046.169-.15.566-1.652,1.132L-5.7,31Zm2.6-8.45L-.35,21.4l-2.264,1.88-.4.111.052-.215Zm-.319.026-.442,1.873-.208.059L-3.622,22.1l-.026-.436ZM.554,17.94l-.072.052L.47,17.966l-.007-.02Zm-.416.033.1.208-.755.553-.247-.7Zm-2.166.143.95-.065.293.826-1.633.885Zm-.7.046.39-.026-.436,1.821-.026.013-1.229-.28-.013-.267-.026-.449Zm-1.626,1,.007.111.02.358-.579-.13ZM6.753.9,6.2,2.2,4.542,3.708l-.7.215,2.8-2.908ZM4.2,2.192,6.408.826l-.325.338L3.26,4.1l-.033-.033Zm.52,4.144.189-.462.7-.039-.553.442-.358.1Zm-.475-.423.332-.02-.241.592-.455.13Zm-1.236.065L3.9,5.932l-.416.8-.729.208L1.53,6.954l-.286-.26.078-.1Zm-1.49-.15.41-.494.189-.208L2.2,5.061l-.481.572-.572.709L1.1,6.355Zm.312-4.222-.026.28-.117.039Zm-.306.7.254-.085L1.7,3.194l-.755.429ZM.736,4.091l.9-.514-.3,1.464L.775,6.056.717,4.144ZM.821,6.713l.013.013-1.216,1.5Zm1.828,4.774.423.026-.585.371ZM1.38,11.422l.95.052-.28.683-.247.156L.775,12.58.8,12.528Zm-2.251.02L.5,11.37l.553.033L.392,12.684l-1.132.293-1.75-.722.052-.1ZM3.787,8.664l.429-.026-.559.351ZM2.733,8.82l.169-.1.546-.039-.228.566-.475.3-.455.117Zm-.826.943-1.249.319-.1-.013,1.7-.976ZM.938,8.853l1.281-.085L.06,10l-.787-.1-.293-.358Zm-1.7-6.14v.026l-.013.007Zm-.455,1,.273-.6.189-.065.033,1.522-.3.169-.54.312Zm-.755,2.927.306-1.177.859-.488.1-.059.02.872L-.916,7.715l-.364.735-.013.02-.254.462Zm.338,3.168.1-.124-1.125,2.231-.013.007ZM-3.062,12.7l.143-.3h0ZM-4.11,4.827-3.622,6.1l-.637.364Zm-.364,4.651.189-2.647.4-.228.371-.215.488,1.268.137,2.55-.02.078-.7.729Zm1.008,1.815.41-.429-.2.82Zm-.475,10.427.059,1.164.039.729-1.112.306-.8-.9ZM1.042,14.4l.846.085L.138,15.761l-.559.163Zm-1.151-.117.774.078-1.672,1.743-.059.02Zm-2.465.494,2.095-.533.046.007L-1.443,16.2l-.026.046-.709.208-1.216-1.164Zm.065,1.769-.156.046-1.216-.761.1-.312.124-.078ZM-3.453,13.5l.007-.02-.592,1.854h-.007l.533-1.737ZM-6.536,9.926l-.02-.26.2-1.425.3.676Zm.039.6.072-.143.533-1.112.163.371-.65,2.628Zm.26,2.439.709-2.882.488,1.1.449,2.459-.26,1.548Zm2.049,1.438.273-.507-.514,1.665-.02.013v.052l-.3.982L-5.983,20.64l.215-1.392Zm-4.17-1.737L-8.11,13l-.3.65Zm.676,4.709-.078-.078-.663-2.908.52-1.125.911,1.21-.618,2.608Zm.247.254.176-.755.481-2.042.891,2.485L-6.113,19Zm3.753,9.341-.624.033.4-.663.6.143ZM-3,24.848l1.457-.637L-3.1,26.221l-.117-.026-.52-.124Zm-1.379.6.9-.39L-4.058,26l-.761-.182Zm-1.789,1.548,1.08-.93.885.208-.455.755-1.522.078Zm-2.817-5.75L-9.717,17.9l-.026-.494.046-.1,1.678,1.509-.644,2.725Zm.579.52.6-2.53.735,1.685.215,2.238Zm-2.186.533-.143-.637.546.514-.26.078Zm.345,1.587-.286-1.294.592-.182,1.138,1.041.637,1.015-.163.1-.052.033-1.743-.41Zm.26.644,1.249.293-.9.566Zm.716,1.789-.26-.65,1.2-.748.1.026.423.1.163.26.436,2.082Zm-2.062,5.425.338.137-.2.078Zm1.047,1.691-.755-1.216.28-.111.169-.065,2.029.82.137.1-.28.468-.566.943ZM-8.5,35.093l-.553-.514.312-.52.553-.917,1.073.794Zm.28.156.033-.026,1.32-1.106.234.176L-6,35.49Zm2.641,8.424-2.856-1.711.221-.033,2.758,1.743Zm.7.007-2.875-1.821,2.745-.41.293.13.976,2.095.007.02Zm1.808.02-.332-.007-.9-1.932,2.134.93.15.091Zm9.406.234L6.246,46.34l-.033.033-1.49-6.219ZM4.4,44.649l.182-3.831.293,1.223,1.1,4.586-.442.449L5,45.93ZM5.3,47.3l-.072.072L5.023,46.7l.254.54ZM2.219,37.91l.826,3.4L3,41.6,1.855,39.139Zm-1,4.046.527-2.348,1.177,2.53-.345,2.257-.546.423-.371-.423ZM1.8,44.993l-.02.013-.007-.046ZM.652,35.5l.013.585-.182-.4Zm-1.659,3.87L0,36.218l.26-.286.423.9.039,1.841L.014,41.24l-.507.286-.553-.631Zm-.052,1.971.3.338-.312.176Zm.143-8.2-.072.683-.169-.364ZM-3,35.945l1.639-2.212.312.676-.1,1.015-.722,2.348-1.392.7ZM-6.614,24.8l.345-2.264-.371,3.948-.052.559-.007.007Zm-2.212,6.232h-.007l-.494-.13-1.418-1.932-.637-1.477,2.725,3.467Zm.455-.176-.15-.2L-11.239,27.2l2,.859,1.568,1.607.319.787Zm.917.54-.611-.163-.1-.124-.013-.013.937-.371.072.182Zm.3.085.13-.215.111.273Zm.332-1.379.065-1.73,1.216,6.986Zm-3.285,7.175-.124-.13.26.007Zm4.352,2.556-2.96-1.06L-9.9,37.5l.2-.182.176-.15,1.7.046,1.464.377.989,2.121Zm.663-.221-.9-1.925.039.013,1.353.924.377.709Zm1.372,5.744,1.1-.02.286.611.221.475-1.932-.976Zm.546,1.626L-5.515,45.9l1.054-.319L-1.9,46.867-1.84,47Zm3.064.052-.833-.013-.735-.371-.481-1.034,2.14,1.353Zm.345-.267-2.283-1.444L-.623,45.3,1.25,46ZM-.812,50.444l-1.333-.54,1.008-.52.494,1.067Zm3.278.039-2.778-.033L-.857,49.28l-.02-.039L.554,48.5l2.634,1.327Zm.956-.872L.886,48.33l.124-.065.436.052,2.01,1.268Zm.26-.234L2.135,48.4l2.322.273Zm6.8,1.386-2.192-.9L4.229,47.946-.5,43.894l-2.888-3.727-2-4.157-.124-.52,3.051,5.4,2.791,3.7.033.033L4.34,47.374h0l.078.052,4.261,2.335,2.16.969Zm97.7-18.213h0l-2.1.846-.293.215h0l-1.359,1.008h0l-.358.267-.046.052-.429.807.742-3.031.007.007.722-.189.768-.2.67-.176h0L107.1,32l.085-.059,1.464-1.984.787-1.815h0l.215-.494-.2-.2-.6.254-2.121.9-.052.033-1.607,1.652-.033.052-.312.781.039-.156.007-.039-.091-2.342.026.02,2.4-1.229.072-.078.325-.82h0l.514-1.294h0l.156-.39.325-1.464.286-1.275-.247-.143-1.093,1.028h0l-1.216,1.112-.026.033-.729,1.158h0l-.254.4h0l-.208.332-.02.046-.351,1.685-.085-2.114-.176-1.164.039.02,1.9-1.711h0l.553-.494.046-.078.742-3.408h0l.26-1.21-.247-.143-.384.345h0l-1.893,1.7-.033.052h-.007l-.924,2.121-.013.046-.169,1.841-.494-3.265h0l1.6-1.659h0l.293-.306.039-.072.689-2.992h0l.013-.059.007-.039-.111-2.069-.273-.085-.553.735h0l-1.106,1.47h0l-.15.2-.02.039-.956,2.66-.007.072.078.579-.742-2.257,1.613-2.582h0l.085-.137.02-.072.163-2.355h0l.059-.846-.28-1.99-.286-.039-.546,1.216h0l-.319.716h0l-.676,1.516-.468,2.537v.052l.072.429-1.054-1.932h.013l.462-.826.982-1.756.02-.085-.2-2.771h0l-.02-.28L102,4.976l-.052-.1-.241.059-.755,1.99L100.4,8.378l-.007.046-.137,2.6.007.046.033.137h0l.221.943-1.086-2,.007-.02h0l.5-2.66V7.4l-.325-1.268h0l-.436-1.7-.312-.7h0L98.435,2.8l-.286.059-.02.794h0l-.039,1.815h0L98.045,6.6l.215,1.912L97.167,7.292l.072-2.374-.013-.065-.059-.124h0l-.8-1.8-.65-1.457-.286.072.117,1.281h0L95.664,4.1h0l.007.1.345,1.717.013.046.1.189-.2-.221h0l-.2-.221L94.806,5,93.693,2.823l-.052-.059L90.487.807,90.272,1l.033.078h0l.885,2.082.039.052,1.711,1.555L93,4.794l1.281.39.3.091L95.7,6.622l.26.319-1.236-.455-.046-.007L93.511,6.42l-.65-.033L91.6,6.323l-.1.267.937.755.052.026.683.2h0l.865.247h0l.807.228.039.007,1.3.013.1-.039.319-.286L98.37,9.92,96.8,9.367l-.039-.007-1.776-.117h0l-.169-.013h0L94,9.178h0l-1.125-.072-.091.28,1.457.911h0l.54.332.039.02.8.2h0l1.34.345.059.007.572-.078.9-.117.1-.052.306-.377.013.013.982,1.945-1.262-.559-.052-.013-1.405-.072-.807.046h0L95.1,12h0l-1,.052-.072.28L95.4,13.2h0l.306.2.046.02,1.379.358,1.242.325.1-.007,1.821-.748.514,1.021.494,1.548-.93-.572-.039-.02-2.14-.546-.052-.007-.293.033h0l-1.184.124-1.307.137-.072.273,2.088,1.522.046.02,1.125.332h0l.442.13.852.254.468.137.124-.02,1.21-.755.963,3.025-.637-.39-1.438-.878-.072-.02-.631-.039-1.177-.078L97.44,18.5l-.826-.052-.1.273.637.468h0l.878.644.163.091h0l2.042,1.106h0l.13.072.1.013,1.392-.319h0l.917-.208.436,1.379.156,1.5-1.691-1.21-.078-.026-.143-.013h0l-1.106-.085-2.81-.221-.111.267,2.654,2.2.059.033.67.182h0l.475.13h0l1.314.358.15-.046.689-.768.325,3.135-.9-.774h0l-.67-.579-.039-.026-1.346-.624L98.774,24.5l-.182.228,1.977,2.55h0l.566.729.111.059.976.052,1.646.085.065.618-.429,2.621-.442-.807h0l-.592-1.08L102.4,29.5l-2.485-1.281-.794-.41-.2.2.735,1.542h0l.54,1.132.052.059.15.1h0l1.737,1.19.078.026,1.19.065-.566,3.454L101.8,32.784l-.046-.065-.507-.416h0l-1.886-1.555-.241.156.7,2.394.039.137.026.046L101.3,35.4l.046.039.592.332h0l.755.429-1.509,2.738-.228-2.264-.026-.072-1.815-2.446h0l-.618-.826-.273.1L98.4,35.2l.1,1.067.748,2.459.078.091,1.509.755-1.067,1.932-.742,1.008-.02-.761-.039-1.6-.007-.039-1.028-3.2-.033-.052-.429-.481h0l-.494-.546-.26.1-.039,1.685h0L96.64,39.51l.007.046.729,2.641.072.091.663.377h0l.572.325L97.05,45.195l-.852.6.091-.5.455-2.5v-.059l-.618-2.745-.02-.072h0L95.573,38.1l-.293.007-.969,3.968v.059l.124.807h0l.358,2.361.059.1.7.546h0l.2.156-2.6,1.841h0L93.082,48l-.325.176.807-2.634h0l.007-.013.007-.052-.234-4.918h0l-.026-.52-.286-.052-1.984,4.67-.013.065.085,2.5.046.1.26.267h0l.65.663h0l.189.2-3.421,1.873-2.712,1.21.052.286,1.008.052.065-.013,2.238-.924,3.291-1.548-.026.091,1.106,1h0l.247.228h0l.924.846.1.039,2.934-.039h0l.429-.007.052-.013,1.665-.676.013-.273-1.438-.742-1.626-.846h0l-.423-.221-.085-.013-.514.059h0l-2.895.345.319-.15.026-.033.007.007,2.433-2.088,1.281.969h0l.306.228.091.033.917-.013.624-.013,1.607-.026.059-.013,2.725-1.268-.02-.28-1.49-.449h0l-.7-.208-.039-.007-1.19-.02h0l-1.951-.033-.059.007-1.574.592,1.73-1.483.02-.02.95-1.229,1.242,1.1.1.039.488-.007,1.431-.013.69-.007.078-.02,3.252-1.945-.052-.28-.689-.1h0l-.924-.143-2.264-.338-.085.013-.384.169h0l-2.5,1.093-.052.026,1.633-2.108.02-.026.358-.735,1.119.371h0l.585.2h.1l3.044-1.086.059-.039L107.88,38.4h0l.462-.5-.111-.254-1,.026h0l-1.769.046-1.587.4-.371.1-.046.02-1.145.781,1-2.082.013-.033.072-.286.006.013,2.673-.293.085-.039.1-.091h0l.742-.689h0l1.158-1.073.026-.033.865-1.392h0l.442-.716-.182-.221Zm-.891-6.355-.9-.566,1.249-.293Zm1.1-3.734-.143.637-.4-.124Zm-1.938,1.8,1.138-1.041.592.182-.286,1.294-.124.306-1.438.338-.306.072-.039-.02-.182-.111ZM105.291,26.1l.163-.26.462-.111.065-.013,1.2.748-.26.65-2.069,1.06Zm2.055-7.994.046.1-.026.494-.729,3.343-.325.293-.644-2.725Zm-2.621,3.617.735-1.685.6,2.53-1.542,1.392ZM93.114,4.521,91.449,3.012l-.553-1.3L93.8,4.735Zm1.275.384L92.028,2.452l-.794-.826L93.44,2.992l.976,1.88Zm1.425-2.491.143.319-.117-.039Zm.059.611.254.085.585,1.327-.755-.429ZM92.588,7.09l-.553-.442.7.039.208.507Zm.729.2L93.075,6.7l.332.02.364.709Zm2.8.462L94.9,7.741l-.729-.208-.416-.8.885.046,1.685.618.078.1Zm.384-.611-.579-.709-.475-.572.078.065.189.208.41.5.423.527Zm-.189-1.3-.3-1.464.9.514.02.052-.059,1.912Zm.5,1.691.013-.013,1.2,1.509Zm1.6-4.013.013.033-.013-.007Zm-.007.345.072.026.117.039.273.6.345,1.34-.559-.319-.286-.163ZM93.433,9.438l.429.026.13.319Zm1.47.917-.475-.3L94.2,9.49l.546.039.1.059.065.039.442.846ZM97,10.889l-1.249-.319L95.4,9.9l.325.182,1.379.787Zm1.386-.182-.787.1-1.164-.663-1-.572,1.281.085,1.964.69Zm.546-1.451-.364-.735L98.344,6.6l.02-.872L98.5,5.8l.82.468.306,1.177L99.2,9.731l-.254-.462ZM94.578,12.32,95,12.294l.156.39Zm1.268.8-.247-.156-.28-.683.95-.052.6,1.158Zm2.55.657-1.132-.293L96.6,12.2l.553-.033,1.373.072,1.574.7.052.1Zm1.919-1.054L99.19,10.492l.1.124,1.041,2.108Zm1.451-7.09.15,1.639-.637-.364Zm-1.08,2.83.488-1.268.768.442.189,2.647-.859,1.542-.7-.729-.02-.078Zm-.124,4.748h0l.143.286Zm.143-1.542.41.429-.215.39ZM97.167,18.8l-.072-.052.091.007Zm1.008.735-.755-.553.1-.208.9.059Zm.267.15.293-.826.95.065.39,1.652Zm3.259.416-.02.4-1.229.28-.026-.013-.436-1.821.39.026,1.333.813Zm.286.332v-.013l.026-.455.553.338Zm-1.724,3.656L98,22.207l2.225.176.429,1.808Zm.93.254-.208-.059-.442-1.873.755.059Zm4.814-10.863.052.982-.3-.65Zm-.449.6.117.254.4.872-.67,2.9-.078.078-.689-2.895ZM104.01,9.048l.2,1.425-.02.26-.007-.007-.481-1Zm-.468,1.034.6,1.262-.124,1.737-.3-1.2-.351-1.431Zm-.852,1.912.488-1.1.709,2.882L102.5,16l-.208-1.229-.052-.319Zm-5.171,4.579L95.768,15.3l.846-.085,1.47,1.529Zm1.138.338-1.672-1.743.774-.078.956,1.841Zm.462.137-1.034-1.99.046-.007,2.095.533.82.507-1.216,1.164Zm1.2.351-.156-.046,1.151-1.106.124.078.1.312Zm1.372-1.268-.585-1.854.059.117.156.507.371,1.229Zm.917,8.593-1.112-.306.1-1.893,1.815,1.3Zm.137-6.193-.644-2.095v-.052l-.02-.013-.514-1.665.273.507,1.581,4.833.208,1.392Zm.787-.4.891-2.485.663,2.791-1.327,1.373Zm-1.5,8.118.429.371-.761.182-.572-.943ZM99.2,25.017l1.457.637.742,1.223-.644.15Zm2.134,2.765-.377-.488.273-.065.325-.078.4.663Zm.989.052-.293-.488-.163-.267.885-.208,1.08.93.013.111Zm-2.413,1.529-.514-1.086.338.176.247.937Zm.416.163-.234-.885,2.14,1.106.371.676Zm1.945,2.231-1.652-1.132-.2-.735,1.008.4,1.4.546.54.982Zm-.755,3.441-1.386-1.873-.592-2.042,1.47,1.21.755,2.843Zm.618.351-.722-2.725.117.1,1.08,2.895Zm3.74,7.188.221.033-2.856,1.711h-.124Zm-3.493-.351.293-.13,2.218.332.527.078-2.875,1.821L101.4,44.5ZM99.827,43.5l2.134-.93-.28.6-.618,1.333-.332.007-1.047-.924Zm8.567-13.712-1.418,1.932-.494.13-.085-.033-.085-.033,1.841-2.348.878-1.119Zm-3.077.69,1.568-1.607,2-.859L106.1,31.561l-.078.1-.611-.241-.4-.163Zm-.429,1.067.937.371-.111.137-.611.163-.293-.481Zm-.215.533.13.215-.241.065Zm-.748-8.729.345,2.264.091,2.251-.007-.007Zm-5.36,10.6.241.319-.169.364Zm.95,4.631-.722-2.348-.1-1.015.2-.423L99,34.54l1.639,2.212.254,2.524ZM97,36.3l.169.189-.182.4Zm.637,5.744-.709-2.563.039-1.841.423-.9.26.286,1.008,3.148L98.7,41.7l-.553.631Zm.774.436.013-.02.286-.325.013.52ZM94.6,42.112l.826-3.4.364,1.229L94.65,42.4ZM95.632,45.6l-.013.013-.546-.423-.345-2.257,1.177-2.53.527,2.348-.442,2.433Zm.254.163-.013.052-.02-.013.013-.013ZM91.4,47.146l-.085-2.407,1.607-3.779-1.49,6.219Zm.722.735-.442-.449,1.392-5.809.182,3.831Zm.5-.371-.208.676-.072-.072.007-.013Zm6.166,2.68,1.008.52-1.333.54H98.3Zm-1.7-.885,1.431.742-.026.059-.533,1.151-2.778.033-.722-.657L97.1,49.306Zm-.885-.182.436-.052.124.065-2.543,1.281-.026-.026,1.333-.846Zm-.7.078-1.548.982-.774-.7Zm7.65-2.5-2.335,1.086L99.5,47.8l.065-.137,2.556-1.288Zm-2.895-.553,1.1.02.319.1-1.932.976.286-.611Zm-.943,1.307-.735.371-.833.013-.091-.065,2.14-1.353Zm-1.054-1.346,1.425.026-2.283,1.444L96.4,46.808Zm9.607-8.15-.124.13-.137-.124Zm-3.864.442,1.47-.377,1.7-.046.377.332-1.184,1.275-2.96,1.06-.377-.124Zm-.416.1.039-.013-.9,1.925-.872-.286.377-.709Zm-.566-1.678-2,4.157-2.888,3.727L93.42,48.76l-4.059,1.906-2.2.9-.351-.02,2.147-.963,4.261-2.335.091-.065h0l3.974-2.752.033-.033,2.784-3.682,3.057-5.418Zm.163-.663,1.047-6.01.169-.976.065,1.73Zm.449.143.637-1.2.234-.176,1.353,1.132Zm2.5-.4-.6-.5-.781-.65,1.073-.794.384.637.481.8Zm1.789-1.659-1.008.93-.852-1.405.137-.1,2.029-.82.163.065.293.111Zm.917-1.477-.2-.078.338-.137Z" transform="translate(63.35 592.944)" fill="url(#linear-gradient)"/>
    <path id="パス_25" data-name="パス 25" d="M5.4,47.634l.189-.2.65-.663h0l.26-.267.046-.1.085-2.5-.013-.065-1.984-4.67-.286.052-.026.52h0l-.234,4.918.007.039.007.02h0l.807,2.634-.325-.176-.1-.072L1.9,45.292l.2-.156h0l.7-.546.059-.1.358-2.361v-.007l.124-.807V41.26l-.969-3.968-.293-.007L1.549,39.1l-.02.059L.912,41.917v.059l.455,2.5.091.5-.852-.6L-1.027,42.17l.572-.325h0l.663-.377.072-.091.729-2.641.007-.046L.977,36.8h0L.938,35.113l-.26-.1-.494.546h0l-.429.481-.033.052-1.028,3.2-.007.039-.039,1.607-.02.761-.742-1.008L-3.18,38.762l1.509-.755.078-.091.742-2.426.111-1.1h0l.176-1.769-.273-.1-.618.826h0l-1.815,2.446-.026.072-.228,2.264-1.509-2.738.755-.429h0l.592-.332.046-.039,1.418-1.919.026-.046.735-2.537-.241-.156-1.886,1.555h0L-4.1,31.9l-.046.065-1.041,2.791L-5.749,31.3l1.19-.065.078-.026,1.737-1.19h0l.15-.1.052-.059L-2,28.725h0l.735-1.542-.2-.2-.794.41h0l-2.485,1.281-.065.059-.592,1.08h0l-.442.813-.429-2.621.065-.618,1.646-.085h0l.976-.052.111-.059.566-.729,1.977-2.55-.182-.228-2.049.9h0l-1.353.592-.039.026-.67.579-.9.774.325-3.135.69.768.15.046,1.314-.358h0l.475-.13h0l.67-.182.059-.033,2.654-2.2L.1,21.069l-2.81.221-1.106.085h0l-.143.013-.078.026-1.691,1.21.156-1.5.436-1.379.917.208h0l1.392.319.1-.013.13-.072h0l2.042-1.106h0l.15-.078.9-.657h0l.637-.468-.1-.273-.826.052L-1,17.738l-1.177.078h0l-.631.039-.072.02-1.438.878-.637.39.963-3.025,1.21.755.124.02.468-.137h0l.852-.254.436-.13h0l1.125-.332.046-.02L2.356,14.5l-.072-.273L.977,14.089l-1.184-.124h0L-.5,13.933l-.052.007-2.14.546-.039.02-.93.572.494-1.548.514-1.021,1.821.748.1.007,1.242-.325,1.379-.358.046-.02.306-.2h0l1.373-.872-.072-.28-1-.052h0L1.283,11.1h0l-.794-.046-1.425.072-.052.013-1.262.559.982-1.945.013-.013.306.377.1.052.9.117h0l.572.078.059-.007,1.34-.345h0l.8-.2.039-.02.54-.332h0l1.457-.911-.091-.28-1.125.072h0l-.82.052h0L2.649,8.4h0L.873,8.521l-.039.007-1.568.553L1.035,6.9l.319.286.1.039,1.3-.013L2.8,7.2,3.6,6.973h0l.865-.247h0l.683-.2L5.205,6.5l.937-.755-.1-.267-1.262.065-.65.033L2.954,5.64l-.046.007L1.673,6.1l.26-.319L3.058,4.436l.3-.091h0l1.281-.39L4.7,3.922,6.408,2.368l.039-.052L7.332.234h0L7.365.156,7.163,0,4.008,1.958l-.052.059L2.831,4.189l-.9.7-.221.241h0l-.2.221.1-.189.013-.046.345-1.7L1.979,3.3h0L2.1,2.016h0L2.213.735,1.927.663l-.65,1.457-.8,1.8h0l-.059.124L.4,4.111.476,6.485-.617,7.7-.4,5.809v-.02l-.02-1.132h0L-.461,2.843h0l-.02-.794L-.766,1.99l-.429.943h0L-1.5,3.6-1.95,5.327h0L-2.275,6.6v.065l.5,2.66h0l.007.02-1.086,2,.221-.943h0l.033-.137.007-.046-.137-2.6-.007-.046L-3.3,6.114l-.768-2L-4.3,4.059l-.052.1-.2,2.283-.02.28h0L-4.78,9.5l.02.085.982,1.756.462.826H-3.3l-1.054,1.925.013-.078.059-.345v-.052l-.455-2.5-.69-1.548h0l-.319-.716h0L-6.3,7.637l-.286.039-.273,1.958v.033l.059.846h0l.163,2.355.02.072.085.137h0l1.613,2.582-.742,2.257.078-.579-.007-.072-.95-2.66-.02-.039-.15-.2h0l-1.106-1.47h0l-.553-.735-.273.085-.111,2.069.007.039.013.059h0l.69,2.992.039.072.293.306h0l1.6,1.659h0L-6.6,22.708l-.169-1.841-.013-.046L-7.707,18.7h-.007l-.033-.052-1.893-1.7h0l-.384-.345-.247.143.26,1.21h0l.735,3.408.046.078.553.494h0l1.9,1.711.033-.02L-6.92,24.77-7,26.9l-.351-1.685-.02-.046-.208-.332h0l-.254-.4h0l-.729-1.158-.026-.033-1.216-1.106h0L-10.894,21.1l-.247.143.286,1.275.312,1.444.163.41h0l.514,1.294h0l.325.82.072.078,2.4,1.229.026-.02-.091,2.342.007.039.039.156-.312-.781-.033-.052L-9.04,27.827l-.046-.033-2.121-.9h0l-.6-.254-.2.2.215.494h0l.774,1.789,1.477,2.016.085.059.592.156h0l.67.176h0l.768.2h0l.722.189.007-.007.735,3.025-.429-.807-.046-.052-.358-.267h0L-8.149,32.8l-.26-.2-.033-.02-2.1-.846-1.112-.449-.182.221.442.716h0l.865,1.392.026.033,1.158,1.073h0l.742.69h0l.1.091.085.039,2.673.293.007-.013.072.286.013.033,1,2.082L-5.8,37.441l-.046-.02-.371-.1-1.555-.4-1.8-.052h0l-1-.026-.111.254.462.5h0l1.314,1.418.059.039,3.044,1.08h.1l.585-.2,1.119-.371.358.735.02.026L-2,42.437l-.033-.02-2.517-1.1h0l-.384-.169-.085-.013-2.264.338-.924.143h0l-.69.1-.052.28,3.252,1.945.078.02.69.007h0l1.431.013.488.007.1-.039,1.242-1.1.95,1.229.02.02,1.73,1.483-1.574-.592-.059-.007-1.951.033h0l-1.19.02-.039.007-.7.208h0l-1.49.449-.02.28,2.725,1.268.059.013,1.607.026.624.013h0l.917.013.091-.033.306-.228h0l1.281-.969L4.06,48.174l.007-.007.026.033.319.15L1.517,48h0L1,47.946l-.085.013-.429.221h0l-1.626.846-1.438.742.013.273,1.665.676.052.013.429.007h0l2.934.039.1-.039.924-.846h0l.247-.228h0l1.106-1-.026-.091,3.3,1.548,2.231.917.065.013L11.482,51l.052-.286L8.822,49.5ZM-3.362,31.691l1.47-1.21-.559,1.925-.033.117L-3.869,34.4l-.254.143.306-1.158Zm-.514.423.117-.1-.722,2.725-.468.267Zm1.639-3.864.163-.6.338-.176-.514,1.086-.02.007-.052.02Zm-2.342.683,2.14-1.106-.163.611-.072.273-1.971.774-.306.117Zm-.592,1.093,1.5-.592.9-.358-.046.169-.15.566-1.652,1.132L-5.7,31Zm2.6-8.45L-.35,21.4l-2.264,1.88-.4.111.052-.215Zm-.319.026-.442,1.873-.208.059L-3.622,22.1l-.026-.436ZM.554,17.94l-.072.052L.47,17.966l-.007-.02Zm-.416.033.1.208-.755.553-.247-.7Zm-2.166.143.95-.065.293.826-1.633.885Zm-.7.046.39-.026-.436,1.821-.026.013-1.229-.28-.013-.267-.026-.449Zm-1.626,1,.007.111.02.358-.579-.13ZM6.753.9,6.2,2.2,4.542,3.708l-.7.215,2.8-2.908ZM4.2,2.192,6.408.826l-.325.338L3.26,4.1l-.033-.033Zm.52,4.144.189-.462.7-.039-.553.442-.358.1Zm-.475-.423.332-.02-.241.592-.455.13Zm-1.236.065L3.9,5.932l-.416.8-.729.208L1.53,6.954l-.286-.26.078-.1Zm-1.49-.15.41-.494.189-.208L2.2,5.061l-.481.572-.572.709L1.1,6.355Zm.312-4.222-.026.28-.117.039Zm-.306.7.254-.085L1.7,3.194l-.755.429ZM.736,4.091l.9-.514-.3,1.464L.775,6.056.717,4.144ZM.821,6.713l.013.013-1.216,1.5Zm1.828,4.774.423.026-.585.371ZM1.38,11.422l.95.052-.28.683-.247.156L.775,12.58.8,12.528Zm-2.251.02L.5,11.37l.553.033L.392,12.684l-1.132.293-1.75-.722.052-.1ZM3.787,8.664l.429-.026-.559.351ZM2.733,8.82l.169-.1.546-.039-.228.566-.475.3-.455.117Zm-.826.943-1.249.319-.1-.013,1.7-.976ZM.938,8.853l1.281-.085L.06,10l-.787-.1-.293-.358Zm-1.7-6.14v.026l-.013.007Zm-.455,1,.273-.6.189-.065.033,1.522-.3.169-.54.312Zm-.755,2.927.306-1.177.859-.488.1-.059.02.872L-.916,7.715l-.364.735-.013.02-.254.462Zm.338,3.168.1-.124-1.125,2.231-.013.007ZM-3.062,12.7l.143-.3h0ZM-4.11,4.827-3.622,6.1l-.637.364Zm-.364,4.651.189-2.647.4-.228.371-.215.488,1.268.137,2.55-.02.078-.7.729Zm1.008,1.815.41-.429-.2.82Zm-.475,10.427.059,1.164.039.729-1.112.306-.8-.9ZM1.042,14.4l.846.085L.138,15.761l-.559.163Zm-1.151-.117.774.078-1.672,1.743-.059.02Zm-2.465.494,2.095-.533.046.007L-1.443,16.2l-.026.046-.709.208-1.216-1.164Zm.065,1.769-.156.046-1.216-.761.1-.312.124-.078ZM-3.453,13.5l.007-.02-.592,1.854h-.007l.533-1.737ZM-6.536,9.926l-.02-.26.2-1.425.3.676Zm.039.6.072-.143.533-1.112.163.371-.65,2.628Zm.26,2.439.709-2.882.488,1.1.449,2.459-.26,1.548Zm2.049,1.438.273-.507-.514,1.665-.02.013v.052l-.3.982L-5.983,20.64l.215-1.392Zm-4.17-1.737L-8.11,13l-.3.65Zm.676,4.709-.078-.078-.663-2.908.52-1.125.911,1.21-.618,2.608Zm.247.254.176-.755.481-2.042.891,2.485L-6.113,19Zm3.753,9.341-.624.033.4-.663.6.143ZM-3,24.848l1.457-.637L-3.1,26.221l-.117-.026-.52-.124Zm-1.379.6.9-.39L-4.058,26l-.761-.182Zm-1.789,1.548,1.08-.93.885.208-.455.755-1.522.078Zm-2.817-5.75L-9.717,17.9l-.026-.494.046-.1,1.678,1.509-.644,2.725Zm.579.52.6-2.53.735,1.685.215,2.238Zm-2.186.533-.143-.637.546.514-.26.078Zm.345,1.587-.286-1.294.592-.182,1.138,1.041.637,1.015-.163.1-.052.033-1.743-.41Zm.26.644,1.249.293-.9.566Zm.716,1.789-.26-.65,1.2-.748.1.026.423.1.163.26.436,2.082Zm-2.062,5.425.338.137-.2.078Zm1.047,1.691-.755-1.216.28-.111.169-.065,2.029.82.137.1-.28.468-.566.943ZM-8.5,35.093l-.553-.514.312-.52.553-.917,1.073.794Zm.28.156.033-.026,1.32-1.106.234.176L-6,35.49Zm2.641,8.424-2.856-1.711.221-.033,2.758,1.743Zm.7.007-2.875-1.821,2.745-.41.293.13.976,2.095.007.02Zm1.808.02-.332-.007-.9-1.932,2.134.93.15.091Zm9.406.234L6.246,46.34l-.033.033-1.49-6.219ZM4.4,44.649l.182-3.831.293,1.223,1.1,4.586-.442.449L5,45.93ZM5.3,47.3l-.072.072L5.023,46.7l.254.54ZM2.219,37.91l.826,3.4L3,41.6,1.855,39.139Zm-1,4.046.527-2.348,1.177,2.53-.345,2.257-.546.423-.371-.423ZM1.8,44.993l-.02.013-.007-.046ZM.652,35.5l.013.585-.182-.4Zm-1.659,3.87L0,36.218l.26-.286.423.9.039,1.841L.014,41.24l-.507.286-.553-.631Zm-.052,1.971.3.338-.312.176Zm.143-8.2-.072.683-.169-.364ZM-3,35.945l1.639-2.212.312.676-.1,1.015-.722,2.348-1.392.7ZM-6.614,24.8l.345-2.264-.371,3.948-.052.559-.007.007Zm-2.212,6.232h-.007l-.494-.13-1.418-1.932-.637-1.477,2.725,3.467Zm.455-.176-.15-.2L-11.239,27.2l2,.859,1.568,1.607.319.787Zm.917.54-.611-.163-.1-.124-.013-.013.937-.371.072.182Zm.3.085.13-.215.111.273Zm.332-1.379.065-1.73,1.216,6.986Zm-3.285,7.175-.124-.13.26.007Zm4.352,2.556-2.96-1.06L-9.9,37.5l.2-.182.176-.15,1.7.046,1.464.377.989,2.121Zm.663-.221-.9-1.925.039.013,1.353.924.377.709Zm1.372,5.744,1.1-.02.286.611.221.475-1.932-.976Zm.546,1.626L-5.515,45.9l1.054-.319L-1.9,46.867-1.84,47Zm3.064.052-.833-.013-.735-.371-.481-1.034,2.14,1.353Zm.345-.267-2.283-1.444L-.623,45.3,1.25,46ZM-.812,50.444l-1.333-.54,1.008-.52.494,1.067Zm3.278.039-2.778-.033L-.857,49.28l-.02-.039L.554,48.5l2.634,1.327Zm.956-.872L.886,48.33l.124-.065.436.052,2.01,1.268Zm.26-.234L2.135,48.4l2.322.273Zm6.8,1.386-2.192-.9L4.229,47.946-.5,43.894l-2.888-3.727-2-4.157-.124-.52,3.051,5.4,2.791,3.7.033.033L4.34,47.374h0l.078.052,4.261,2.335,2.16.969Zm97.7-18.213h0l-2.1.846-.293.215h0l-1.359,1.008h0l-.358.267-.046.052-.429.807.742-3.031.007.007.722-.189.768-.2.67-.176h0L107.1,32l.085-.059,1.464-1.984.787-1.815h0l.215-.494-.2-.2-.6.254-2.121.9-.052.033-1.607,1.652-.033.052-.312.781.039-.156.007-.039-.091-2.342.026.02,2.4-1.229.072-.078.325-.82h0l.514-1.294h0l.156-.39.325-1.464.286-1.275-.247-.143-1.093,1.028h0l-1.216,1.112-.026.033-.729,1.158h0l-.254.4h0l-.208.332-.02.046-.351,1.685-.085-2.114-.176-1.164.039.02,1.9-1.711h0l.553-.494.046-.078.742-3.408h0l.26-1.21-.247-.143-.384.345h0l-1.893,1.7-.033.052h-.007l-.924,2.121-.013.046-.169,1.841-.494-3.265h0l1.6-1.659h0l.293-.306.039-.072.689-2.992h0l.013-.059.007-.039-.111-2.069-.273-.085-.553.735h0l-1.106,1.47h0l-.15.2-.02.039-.956,2.66-.007.072.078.579-.742-2.257,1.613-2.582h0l.085-.137.02-.072.163-2.355h0l.059-.846-.28-1.99-.286-.039-.546,1.216h0l-.319.716h0l-.676,1.516-.468,2.537v.052l.072.429-1.054-1.932h.013l.462-.826.982-1.756.02-.085-.2-2.771h0l-.02-.28L102,4.976l-.052-.1-.241.059-.755,1.99L100.4,8.378l-.007.046-.137,2.6.007.046.033.137h0l.221.943-1.086-2,.007-.02h0l.5-2.66V7.4l-.325-1.268h0l-.436-1.7-.312-.7h0L98.435,2.8l-.286.059-.02.794h0l-.039,1.815h0L98.045,6.6l.215,1.912L97.167,7.292l.072-2.374-.013-.065-.059-.124h0l-.8-1.8-.65-1.457-.286.072.117,1.281h0L95.664,4.1h0l.007.1.345,1.717.013.046.1.189-.2-.221h0l-.2-.221L94.806,5,93.693,2.823l-.052-.059L90.487.807,90.272,1l.033.078h0l.885,2.082.039.052,1.711,1.555L93,4.794l1.281.39.3.091L95.7,6.622l.26.319-1.236-.455-.046-.007L93.511,6.42l-.65-.033L91.6,6.323l-.1.267.937.755.052.026.683.2h0l.865.247h0l.807.228.039.007,1.3.013.1-.039.319-.286L98.37,9.92,96.8,9.367l-.039-.007-1.776-.117h0l-.169-.013h0L94,9.178h0l-1.125-.072-.091.28,1.457.911h0l.54.332.039.02.8.2h0l1.34.345.059.007.572-.078.9-.117.1-.052.306-.377.013.013.982,1.945-1.262-.559-.052-.013-1.405-.072-.807.046h0L95.1,12h0l-1,.052-.072.28L95.4,13.2h0l.306.2.046.02,1.379.358,1.242.325.1-.007,1.821-.748.514,1.021.494,1.548-.93-.572-.039-.02-2.14-.546-.052-.007-.293.033h0l-1.184.124-1.307.137-.072.273,2.088,1.522.046.02,1.125.332h0l.442.13.852.254.468.137.124-.02,1.21-.755.963,3.025-.637-.39-1.438-.878-.072-.02-.631-.039-1.177-.078L97.44,18.5l-.826-.052-.1.273.637.468h0l.878.644.163.091h0l2.042,1.106h0l.13.072.1.013,1.392-.319h0l.917-.208.436,1.379.156,1.5-1.691-1.21-.078-.026-.143-.013h0l-1.106-.085-2.81-.221-.111.267,2.654,2.2.059.033.67.182h0l.475.13h0l1.314.358.15-.046.689-.768.325,3.135-.9-.774h0l-.67-.579-.039-.026-1.346-.624L98.774,24.5l-.182.228,1.977,2.55h0l.566.729.111.059.976.052,1.646.085.065.618-.429,2.621-.442-.807h0l-.592-1.08L102.4,29.5l-2.485-1.281-.794-.41-.2.2.735,1.542h0l.54,1.132.052.059.15.1h0l1.737,1.19.078.026,1.19.065-.566,3.454L101.8,32.784l-.046-.065-.507-.416h0l-1.886-1.555-.241.156.7,2.394.039.137.026.046L101.3,35.4l.046.039.592.332h0l.755.429-1.509,2.738-.228-2.264-.026-.072-1.815-2.446h0l-.618-.826-.273.1L98.4,35.2l.1,1.067.748,2.459.078.091,1.509.755-1.067,1.932-.742,1.008-.02-.761-.039-1.6-.007-.039-1.028-3.2-.033-.052-.429-.481h0l-.494-.546-.26.1-.039,1.685h0L96.64,39.51l.007.046.729,2.641.072.091.663.377h0l.572.325L97.05,45.195l-.852.6.091-.5.455-2.5v-.059l-.618-2.745-.02-.072h0L95.573,38.1l-.293.007-.969,3.968v.059l.124.807h0l.358,2.361.059.1.7.546h0l.2.156-2.6,1.841h0L93.082,48l-.325.176.807-2.634h0l.007-.013.007-.052-.234-4.918h0l-.026-.52-.286-.052-1.984,4.67-.013.065.085,2.5.046.1.26.267h0l.65.663h0l.189.2-3.421,1.873-2.712,1.21.052.286,1.008.052.065-.013,2.238-.924,3.291-1.548-.026.091,1.106,1h0l.247.228h0l.924.846.1.039,2.934-.039h0l.429-.007.052-.013,1.665-.676.013-.273-1.438-.742-1.626-.846h0l-.423-.221-.085-.013-.514.059h0l-2.895.345.319-.15.026-.033.007.007,2.433-2.088,1.281.969h0l.306.228.091.033.917-.013.624-.013,1.607-.026.059-.013,2.725-1.268-.02-.28-1.49-.449h0l-.7-.208-.039-.007-1.19-.02h0l-1.951-.033-.059.007-1.574.592,1.73-1.483.02-.02.95-1.229,1.242,1.1.1.039.488-.007,1.431-.013.69-.007.078-.02,3.252-1.945-.052-.28-.689-.1h0l-.924-.143-2.264-.338-.085.013-.384.169h0l-2.5,1.093-.052.026,1.633-2.108.02-.026.358-.735,1.119.371h0l.585.2h.1l3.044-1.086.059-.039L107.88,38.4h0l.462-.5-.111-.254-1,.026h0l-1.769.046-1.587.4-.371.1-.046.02-1.145.781,1-2.082.013-.033.072-.286.006.013,2.673-.293.085-.039.1-.091h0l.742-.689h0l1.158-1.073.026-.033.865-1.392h0l.442-.716-.182-.221Zm-.891-6.355-.9-.566,1.249-.293Zm1.1-3.734-.143.637-.4-.124Zm-1.938,1.8,1.138-1.041.592.182-.286,1.294-.124.306-1.438.338-.306.072-.039-.02-.182-.111ZM105.291,26.1l.163-.26.462-.111.065-.013,1.2.748-.26.65-2.069,1.06Zm2.055-7.994.046.1-.026.494-.729,3.343-.325.293-.644-2.725Zm-2.621,3.617.735-1.685.6,2.53-1.542,1.392ZM93.114,4.521,91.449,3.012l-.553-1.3L93.8,4.735Zm1.275.384L92.028,2.452l-.794-.826L93.44,2.992l.976,1.88Zm1.425-2.491.143.319-.117-.039Zm.059.611.254.085.585,1.327-.755-.429ZM92.588,7.09l-.553-.442.7.039.208.507Zm.729.2L93.075,6.7l.332.02.364.709Zm2.8.462L94.9,7.741l-.729-.208-.416-.8.885.046,1.685.618.078.1Zm.384-.611-.579-.709-.475-.572.078.065.189.208.41.5.423.527Zm-.189-1.3-.3-1.464.9.514.02.052-.059,1.912Zm.5,1.691.013-.013,1.2,1.509Zm1.6-4.013.013.033-.013-.007Zm-.007.345.072.026.117.039.273.6.345,1.34-.559-.319-.286-.163ZM93.433,9.438l.429.026.13.319Zm1.47.917-.475-.3L94.2,9.49l.546.039.1.059.065.039.442.846ZM97,10.889l-1.249-.319L95.4,9.9l.325.182,1.379.787Zm1.386-.182-.787.1-1.164-.663-1-.572,1.281.085,1.964.69Zm.546-1.451-.364-.735L98.344,6.6l.02-.872L98.5,5.8l.82.468.306,1.177L99.2,9.731l-.254-.462ZM94.578,12.32,95,12.294l.156.39Zm1.268.8-.247-.156-.28-.683.95-.052.6,1.158Zm2.55.657-1.132-.293L96.6,12.2l.553-.033,1.373.072,1.574.7.052.1Zm1.919-1.054L99.19,10.492l.1.124,1.041,2.108Zm1.451-7.09.15,1.639-.637-.364Zm-1.08,2.83.488-1.268.768.442.189,2.647-.859,1.542-.7-.729-.02-.078Zm-.124,4.748h0l.143.286Zm.143-1.542.41.429-.215.39ZM97.167,18.8l-.072-.052.091.007Zm1.008.735-.755-.553.1-.208.9.059Zm.267.15.293-.826.95.065.39,1.652Zm3.259.416-.02.4-1.229.28-.026-.013-.436-1.821.39.026,1.333.813Zm.286.332v-.013l.026-.455.553.338Zm-1.724,3.656L98,22.207l2.225.176.429,1.808Zm.93.254-.208-.059-.442-1.873.755.059Zm4.814-10.863.052.982-.3-.65Zm-.449.6.117.254.4.872-.67,2.9-.078.078-.689-2.895ZM104.01,9.048l.2,1.425-.02.26-.007-.007-.481-1Zm-.468,1.034.6,1.262-.124,1.737-.3-1.2-.351-1.431Zm-.852,1.912.488-1.1.709,2.882L102.5,16l-.208-1.229-.052-.319Zm-5.171,4.579L95.768,15.3l.846-.085,1.47,1.529Zm1.138.338-1.672-1.743.774-.078.956,1.841Zm.462.137-1.034-1.99.046-.007,2.095.533.82.507-1.216,1.164Zm1.2.351-.156-.046,1.151-1.106.124.078.1.312Zm1.372-1.268-.585-1.854.059.117.156.507.371,1.229Zm.917,8.593-1.112-.306.1-1.893,1.815,1.3Zm.137-6.193-.644-2.095v-.052l-.02-.013-.514-1.665.273.507,1.581,4.833.208,1.392Zm.787-.4.891-2.485.663,2.791-1.327,1.373Zm-1.5,8.118.429.371-.761.182-.572-.943ZM99.2,25.017l1.457.637.742,1.223-.644.15Zm2.134,2.765-.377-.488.273-.065.325-.078.4.663Zm.989.052-.293-.488-.163-.267.885-.208,1.08.93.013.111Zm-2.413,1.529-.514-1.086.338.176.247.937Zm.416.163-.234-.885,2.14,1.106.371.676Zm1.945,2.231-1.652-1.132-.2-.735,1.008.4,1.4.546.54.982Zm-.755,3.441-1.386-1.873-.592-2.042,1.47,1.21.755,2.843Zm.618.351-.722-2.725.117.1,1.08,2.895Zm3.74,7.188.221.033-2.856,1.711h-.124Zm-3.493-.351.293-.13,2.218.332.527.078-2.875,1.821L101.4,44.5ZM99.827,43.5l2.134-.93-.28.6-.618,1.333-.332.007-1.047-.924Zm8.567-13.712-1.418,1.932-.494.13-.085-.033-.085-.033,1.841-2.348.878-1.119Zm-3.077.69,1.568-1.607,2-.859L106.1,31.561l-.078.1-.611-.241-.4-.163Zm-.429,1.067.937.371-.111.137-.611.163-.293-.481Zm-.215.533.13.215-.241.065Zm-.748-8.729.345,2.264.091,2.251-.007-.007Zm-5.36,10.6.241.319-.169.364Zm.95,4.631-.722-2.348-.1-1.015.2-.423L99,34.54l1.639,2.212.254,2.524ZM97,36.3l.169.189-.182.4Zm.637,5.744-.709-2.563.039-1.841.423-.9.26.286,1.008,3.148L98.7,41.7l-.553.631Zm.774.436.013-.02.286-.325.013.52ZM94.6,42.112l.826-3.4.364,1.229L94.65,42.4ZM95.632,45.6l-.013.013-.546-.423-.345-2.257,1.177-2.53.527,2.348-.442,2.433Zm.254.163-.013.052-.02-.013.013-.013ZM91.4,47.146l-.085-2.407,1.607-3.779-1.49,6.219Zm.722.735-.442-.449,1.392-5.809.182,3.831Zm.5-.371-.208.676-.072-.072.007-.013Zm6.166,2.68,1.008.52-1.333.54H98.3Zm-1.7-.885,1.431.742-.026.059-.533,1.151-2.778.033-.722-.657L97.1,49.306Zm-.885-.182.436-.052.124.065-2.543,1.281-.026-.026,1.333-.846Zm-.7.078-1.548.982-.774-.7Zm7.65-2.5-2.335,1.086L99.5,47.8l.065-.137,2.556-1.288Zm-2.895-.553,1.1.02.319.1-1.932.976.286-.611Zm-.943,1.307-.735.371-.833.013-.091-.065,2.14-1.353Zm-1.054-1.346,1.425.026-2.283,1.444L96.4,46.808Zm9.607-8.15-.124.13-.137-.124Zm-3.864.442,1.47-.377,1.7-.046.377.332-1.184,1.275-2.96,1.06-.377-.124Zm-.416.1.039-.013-.9,1.925-.872-.286.377-.709Zm-.566-1.678-2,4.157-2.888,3.727L93.42,48.76l-4.059,1.906-2.2.9-.351-.02,2.147-.963,4.261-2.335.091-.065h0l3.974-2.752.033-.033,2.784-3.682,3.057-5.418Zm.163-.663,1.047-6.01.169-.976.065,1.73Zm.449.143.637-1.2.234-.176,1.353,1.132Zm2.5-.4-.6-.5-.781-.65,1.073-.794.384.637.481.8Zm1.789-1.659-1.008.93-.852-1.405.137-.1,2.029-.82.163.065.293.111Zm.917-1.477-.2-.078.338-.137Z" transform="translate(190.35 592.944)" fill="url(#linear-gradient)"/>
    <path id="パス_26" data-name="パス 26" d="M5.4,47.634l.189-.2.65-.663h0l.26-.267.046-.1.085-2.5-.013-.065-1.984-4.67-.286.052-.026.52h0l-.234,4.918.007.039.007.02h0l.807,2.634-.325-.176-.1-.072L1.9,45.292l.2-.156h0l.7-.546.059-.1.358-2.361v-.007l.124-.807V41.26l-.969-3.968-.293-.007L1.549,39.1l-.02.059L.912,41.917v.059l.455,2.5.091.5-.852-.6L-1.027,42.17l.572-.325h0l.663-.377.072-.091.729-2.641.007-.046L.977,36.8h0L.938,35.113l-.26-.1-.494.546h0l-.429.481-.033.052-1.028,3.2-.007.039-.039,1.607-.02.761-.742-1.008L-3.18,38.762l1.509-.755.078-.091.742-2.426.111-1.1h0l.176-1.769-.273-.1-.618.826h0l-1.815,2.446-.026.072-.228,2.264-1.509-2.738.755-.429h0l.592-.332.046-.039,1.418-1.919.026-.046.735-2.537-.241-.156-1.886,1.555h0L-4.1,31.9l-.046.065-1.041,2.791L-5.749,31.3l1.19-.065.078-.026,1.737-1.19h0l.15-.1.052-.059L-2,28.725h0l.735-1.542-.2-.2-.794.41h0l-2.485,1.281-.065.059-.592,1.08h0l-.442.813-.429-2.621.065-.618,1.646-.085h0l.976-.052.111-.059.566-.729,1.977-2.55-.182-.228-2.049.9h0l-1.353.592-.039.026-.67.579-.9.774.325-3.135.69.768.15.046,1.314-.358h0l.475-.13h0l.67-.182.059-.033,2.654-2.2L.1,21.069l-2.81.221-1.106.085h0l-.143.013-.078.026-1.691,1.21.156-1.5.436-1.379.917.208h0l1.392.319.1-.013.13-.072h0l2.042-1.106h0l.15-.078.9-.657h0l.637-.468-.1-.273-.826.052L-1,17.738l-1.177.078h0l-.631.039-.072.02-1.438.878-.637.39.963-3.025,1.21.755.124.02.468-.137h0l.852-.254.436-.13h0l1.125-.332.046-.02L2.356,14.5l-.072-.273L.977,14.089l-1.184-.124h0L-.5,13.933l-.052.007-2.14.546-.039.02-.93.572.494-1.548.514-1.021,1.821.748.1.007,1.242-.325,1.379-.358.046-.02.306-.2h0l1.373-.872-.072-.28-1-.052h0L1.283,11.1h0l-.794-.046-1.425.072-.052.013-1.262.559.982-1.945.013-.013.306.377.1.052.9.117h0l.572.078.059-.007,1.34-.345h0l.8-.2.039-.02.54-.332h0l1.457-.911-.091-.28-1.125.072h0l-.82.052h0L2.649,8.4h0L.873,8.521l-.039.007-1.568.553L1.035,6.9l.319.286.1.039,1.3-.013L2.8,7.2,3.6,6.973h0l.865-.247h0l.683-.2L5.205,6.5l.937-.755-.1-.267-1.262.065-.65.033L2.954,5.64l-.046.007L1.673,6.1l.26-.319L3.058,4.436l.3-.091h0l1.281-.39L4.7,3.922,6.408,2.368l.039-.052L7.332.234h0L7.365.156,7.163,0,4.008,1.958l-.052.059L2.831,4.189l-.9.7-.221.241h0l-.2.221.1-.189.013-.046.345-1.7L1.979,3.3h0L2.1,2.016h0L2.213.735,1.927.663l-.65,1.457-.8,1.8h0l-.059.124L.4,4.111.476,6.485-.617,7.7-.4,5.809v-.02l-.02-1.132h0L-.461,2.843h0l-.02-.794L-.766,1.99l-.429.943h0L-1.5,3.6-1.95,5.327h0L-2.275,6.6v.065l.5,2.66h0l.007.02-1.086,2,.221-.943h0l.033-.137.007-.046-.137-2.6-.007-.046L-3.3,6.114l-.768-2L-4.3,4.059l-.052.1-.2,2.283-.02.28h0L-4.78,9.5l.02.085.982,1.756.462.826H-3.3l-1.054,1.925.013-.078.059-.345v-.052l-.455-2.5-.69-1.548h0l-.319-.716h0L-6.3,7.637l-.286.039-.273,1.958v.033l.059.846h0l.163,2.355.02.072.085.137h0l1.613,2.582-.742,2.257.078-.579-.007-.072-.95-2.66-.02-.039-.15-.2h0l-1.106-1.47h0l-.553-.735-.273.085-.111,2.069.007.039.013.059h0l.69,2.992.039.072.293.306h0l1.6,1.659h0L-6.6,22.708l-.169-1.841-.013-.046L-7.707,18.7h-.007l-.033-.052-1.893-1.7h0l-.384-.345-.247.143.26,1.21h0l.735,3.408.046.078.553.494h0l1.9,1.711.033-.02L-6.92,24.77-7,26.9l-.351-1.685-.02-.046-.208-.332h0l-.254-.4h0l-.729-1.158-.026-.033-1.216-1.106h0L-10.894,21.1l-.247.143.286,1.275.312,1.444.163.41h0l.514,1.294h0l.325.82.072.078,2.4,1.229.026-.02-.091,2.342.007.039.039.156-.312-.781-.033-.052L-9.04,27.827l-.046-.033-2.121-.9h0l-.6-.254-.2.2.215.494h0l.774,1.789,1.477,2.016.085.059.592.156h0l.67.176h0l.768.2h0l.722.189.007-.007.735,3.025-.429-.807-.046-.052-.358-.267h0L-8.149,32.8l-.26-.2-.033-.02-2.1-.846-1.112-.449-.182.221.442.716h0l.865,1.392.026.033,1.158,1.073h0l.742.69h0l.1.091.085.039,2.673.293.007-.013.072.286.013.033,1,2.082L-5.8,37.441l-.046-.02-.371-.1-1.555-.4-1.8-.052h0l-1-.026-.111.254.462.5h0l1.314,1.418.059.039,3.044,1.08h.1l.585-.2,1.119-.371.358.735.02.026L-2,42.437l-.033-.02-2.517-1.1h0l-.384-.169-.085-.013-2.264.338-.924.143h0l-.69.1-.052.28,3.252,1.945.078.02.69.007h0l1.431.013.488.007.1-.039,1.242-1.1.95,1.229.02.02,1.73,1.483-1.574-.592-.059-.007-1.951.033h0l-1.19.02-.039.007-.7.208h0l-1.49.449-.02.28,2.725,1.268.059.013,1.607.026.624.013h0l.917.013.091-.033.306-.228h0l1.281-.969L4.06,48.174l.007-.007.026.033.319.15L1.517,48h0L1,47.946l-.085.013-.429.221h0l-1.626.846-1.438.742.013.273,1.665.676.052.013.429.007h0l2.934.039.1-.039.924-.846h0l.247-.228h0l1.106-1-.026-.091,3.3,1.548,2.231.917.065.013L11.482,51l.052-.286L8.822,49.5ZM-3.362,31.691l1.47-1.21-.559,1.925-.033.117L-3.869,34.4l-.254.143.306-1.158Zm-.514.423.117-.1-.722,2.725-.468.267Zm1.639-3.864.163-.6.338-.176-.514,1.086-.02.007-.052.02Zm-2.342.683,2.14-1.106-.163.611-.072.273-1.971.774-.306.117Zm-.592,1.093,1.5-.592.9-.358-.046.169-.15.566-1.652,1.132L-5.7,31Zm2.6-8.45L-.35,21.4l-2.264,1.88-.4.111.052-.215Zm-.319.026-.442,1.873-.208.059L-3.622,22.1l-.026-.436ZM.554,17.94l-.072.052L.47,17.966l-.007-.02Zm-.416.033.1.208-.755.553-.247-.7Zm-2.166.143.95-.065.293.826-1.633.885Zm-.7.046.39-.026-.436,1.821-.026.013-1.229-.28-.013-.267-.026-.449Zm-1.626,1,.007.111.02.358-.579-.13ZM6.753.9,6.2,2.2,4.542,3.708l-.7.215,2.8-2.908ZM4.2,2.192,6.408.826l-.325.338L3.26,4.1l-.033-.033Zm.52,4.144.189-.462.7-.039-.553.442-.358.1Zm-.475-.423.332-.02-.241.592-.455.13Zm-1.236.065L3.9,5.932l-.416.8-.729.208L1.53,6.954l-.286-.26.078-.1Zm-1.49-.15.41-.494.189-.208L2.2,5.061l-.481.572-.572.709L1.1,6.355Zm.312-4.222-.026.28-.117.039Zm-.306.7.254-.085L1.7,3.194l-.755.429ZM.736,4.091l.9-.514-.3,1.464L.775,6.056.717,4.144ZM.821,6.713l.013.013-1.216,1.5Zm1.828,4.774.423.026-.585.371ZM1.38,11.422l.95.052-.28.683-.247.156L.775,12.58.8,12.528Zm-2.251.02L.5,11.37l.553.033L.392,12.684l-1.132.293-1.75-.722.052-.1ZM3.787,8.664l.429-.026-.559.351ZM2.733,8.82l.169-.1.546-.039-.228.566-.475.3-.455.117Zm-.826.943-1.249.319-.1-.013,1.7-.976ZM.938,8.853l1.281-.085L.06,10l-.787-.1-.293-.358Zm-1.7-6.14v.026l-.013.007Zm-.455,1,.273-.6.189-.065.033,1.522-.3.169-.54.312Zm-.755,2.927.306-1.177.859-.488.1-.059.02.872L-.916,7.715l-.364.735-.013.02-.254.462Zm.338,3.168.1-.124-1.125,2.231-.013.007ZM-3.062,12.7l.143-.3h0ZM-4.11,4.827-3.622,6.1l-.637.364Zm-.364,4.651.189-2.647.4-.228.371-.215.488,1.268.137,2.55-.02.078-.7.729Zm1.008,1.815.41-.429-.2.82Zm-.475,10.427.059,1.164.039.729-1.112.306-.8-.9ZM1.042,14.4l.846.085L.138,15.761l-.559.163Zm-1.151-.117.774.078-1.672,1.743-.059.02Zm-2.465.494,2.095-.533.046.007L-1.443,16.2l-.026.046-.709.208-1.216-1.164Zm.065,1.769-.156.046-1.216-.761.1-.312.124-.078ZM-3.453,13.5l.007-.02-.592,1.854h-.007l.533-1.737ZM-6.536,9.926l-.02-.26.2-1.425.3.676Zm.039.6.072-.143.533-1.112.163.371-.65,2.628Zm.26,2.439.709-2.882.488,1.1.449,2.459-.26,1.548Zm2.049,1.438.273-.507-.514,1.665-.02.013v.052l-.3.982L-5.983,20.64l.215-1.392Zm-4.17-1.737L-8.11,13l-.3.65Zm.676,4.709-.078-.078-.663-2.908.52-1.125.911,1.21-.618,2.608Zm.247.254.176-.755.481-2.042.891,2.485L-6.113,19Zm3.753,9.341-.624.033.4-.663.6.143ZM-3,24.848l1.457-.637L-3.1,26.221l-.117-.026-.52-.124Zm-1.379.6.9-.39L-4.058,26l-.761-.182Zm-1.789,1.548,1.08-.93.885.208-.455.755-1.522.078Zm-2.817-5.75L-9.717,17.9l-.026-.494.046-.1,1.678,1.509-.644,2.725Zm.579.52.6-2.53.735,1.685.215,2.238Zm-2.186.533-.143-.637.546.514-.26.078Zm.345,1.587-.286-1.294.592-.182,1.138,1.041.637,1.015-.163.1-.052.033-1.743-.41Zm.26.644,1.249.293-.9.566Zm.716,1.789-.26-.65,1.2-.748.1.026.423.1.163.26.436,2.082Zm-2.062,5.425.338.137-.2.078Zm1.047,1.691-.755-1.216.28-.111.169-.065,2.029.82.137.1-.28.468-.566.943ZM-8.5,35.093l-.553-.514.312-.52.553-.917,1.073.794Zm.28.156.033-.026,1.32-1.106.234.176L-6,35.49Zm2.641,8.424-2.856-1.711.221-.033,2.758,1.743Zm.7.007-2.875-1.821,2.745-.41.293.13.976,2.095.007.02Zm1.808.02-.332-.007-.9-1.932,2.134.93.15.091Zm9.406.234L6.246,46.34l-.033.033-1.49-6.219ZM4.4,44.649l.182-3.831.293,1.223,1.1,4.586-.442.449L5,45.93ZM5.3,47.3l-.072.072L5.023,46.7l.254.54ZM2.219,37.91l.826,3.4L3,41.6,1.855,39.139Zm-1,4.046.527-2.348,1.177,2.53-.345,2.257-.546.423-.371-.423ZM1.8,44.993l-.02.013-.007-.046ZM.652,35.5l.013.585-.182-.4Zm-1.659,3.87L0,36.218l.26-.286.423.9.039,1.841L.014,41.24l-.507.286-.553-.631Zm-.052,1.971.3.338-.312.176Zm.143-8.2-.072.683-.169-.364ZM-3,35.945l1.639-2.212.312.676-.1,1.015-.722,2.348-1.392.7ZM-6.614,24.8l.345-2.264-.371,3.948-.052.559-.007.007Zm-2.212,6.232h-.007l-.494-.13-1.418-1.932-.637-1.477,2.725,3.467Zm.455-.176-.15-.2L-11.239,27.2l2,.859,1.568,1.607.319.787Zm.917.54-.611-.163-.1-.124-.013-.013.937-.371.072.182Zm.3.085.13-.215.111.273Zm.332-1.379.065-1.73,1.216,6.986Zm-3.285,7.175-.124-.13.26.007Zm4.352,2.556-2.96-1.06L-9.9,37.5l.2-.182.176-.15,1.7.046,1.464.377.989,2.121Zm.663-.221-.9-1.925.039.013,1.353.924.377.709Zm1.372,5.744,1.1-.02.286.611.221.475-1.932-.976Zm.546,1.626L-5.515,45.9l1.054-.319L-1.9,46.867-1.84,47Zm3.064.052-.833-.013-.735-.371-.481-1.034,2.14,1.353Zm.345-.267-2.283-1.444L-.623,45.3,1.25,46ZM-.812,50.444l-1.333-.54,1.008-.52.494,1.067Zm3.278.039-2.778-.033L-.857,49.28l-.02-.039L.554,48.5l2.634,1.327Zm.956-.872L.886,48.33l.124-.065.436.052,2.01,1.268Zm.26-.234L2.135,48.4l2.322.273Zm6.8,1.386-2.192-.9L4.229,47.946-.5,43.894l-2.888-3.727-2-4.157-.124-.52,3.051,5.4,2.791,3.7.033.033L4.34,47.374h0l.078.052,4.261,2.335,2.16.969Zm97.7-18.213h0l-2.1.846-.293.215h0l-1.359,1.008h0l-.358.267-.046.052-.429.807.742-3.031.007.007.722-.189.768-.2.67-.176h0L107.1,32l.085-.059,1.464-1.984.787-1.815h0l.215-.494-.2-.2-.6.254-2.121.9-.052.033-1.607,1.652-.033.052-.312.781.039-.156.007-.039-.091-2.342.026.02,2.4-1.229.072-.078.325-.82h0l.514-1.294h0l.156-.39.325-1.464.286-1.275-.247-.143-1.093,1.028h0l-1.216,1.112-.026.033-.729,1.158h0l-.254.4h0l-.208.332-.02.046-.351,1.685-.085-2.114-.176-1.164.039.02,1.9-1.711h0l.553-.494.046-.078.742-3.408h0l.26-1.21-.247-.143-.384.345h0l-1.893,1.7-.033.052h-.007l-.924,2.121-.013.046-.169,1.841-.494-3.265h0l1.6-1.659h0l.293-.306.039-.072.689-2.992h0l.013-.059.007-.039-.111-2.069-.273-.085-.553.735h0l-1.106,1.47h0l-.15.2-.02.039-.956,2.66-.007.072.078.579-.742-2.257,1.613-2.582h0l.085-.137.02-.072.163-2.355h0l.059-.846-.28-1.99-.286-.039-.546,1.216h0l-.319.716h0l-.676,1.516-.468,2.537v.052l.072.429-1.054-1.932h.013l.462-.826.982-1.756.02-.085-.2-2.771h0l-.02-.28L102,4.976l-.052-.1-.241.059-.755,1.99L100.4,8.378l-.007.046-.137,2.6.007.046.033.137h0l.221.943-1.086-2,.007-.02h0l.5-2.66V7.4l-.325-1.268h0l-.436-1.7-.312-.7h0L98.435,2.8l-.286.059-.02.794h0l-.039,1.815h0L98.045,6.6l.215,1.912L97.167,7.292l.072-2.374-.013-.065-.059-.124h0l-.8-1.8-.65-1.457-.286.072.117,1.281h0L95.664,4.1h0l.007.1.345,1.717.013.046.1.189-.2-.221h0l-.2-.221L94.806,5,93.693,2.823l-.052-.059L90.487.807,90.272,1l.033.078h0l.885,2.082.039.052,1.711,1.555L93,4.794l1.281.39.3.091L95.7,6.622l.26.319-1.236-.455-.046-.007L93.511,6.42l-.65-.033L91.6,6.323l-.1.267.937.755.052.026.683.2h0l.865.247h0l.807.228.039.007,1.3.013.1-.039.319-.286L98.37,9.92,96.8,9.367l-.039-.007-1.776-.117h0l-.169-.013h0L94,9.178h0l-1.125-.072-.091.28,1.457.911h0l.54.332.039.02.8.2h0l1.34.345.059.007.572-.078.9-.117.1-.052.306-.377.013.013.982,1.945-1.262-.559-.052-.013-1.405-.072-.807.046h0L95.1,12h0l-1,.052-.072.28L95.4,13.2h0l.306.2.046.02,1.379.358,1.242.325.1-.007,1.821-.748.514,1.021.494,1.548-.93-.572-.039-.02-2.14-.546-.052-.007-.293.033h0l-1.184.124-1.307.137-.072.273,2.088,1.522.046.02,1.125.332h0l.442.13.852.254.468.137.124-.02,1.21-.755.963,3.025-.637-.39-1.438-.878-.072-.02-.631-.039-1.177-.078L97.44,18.5l-.826-.052-.1.273.637.468h0l.878.644.163.091h0l2.042,1.106h0l.13.072.1.013,1.392-.319h0l.917-.208.436,1.379.156,1.5-1.691-1.21-.078-.026-.143-.013h0l-1.106-.085-2.81-.221-.111.267,2.654,2.2.059.033.67.182h0l.475.13h0l1.314.358.15-.046.689-.768.325,3.135-.9-.774h0l-.67-.579-.039-.026-1.346-.624L98.774,24.5l-.182.228,1.977,2.55h0l.566.729.111.059.976.052,1.646.085.065.618-.429,2.621-.442-.807h0l-.592-1.08L102.4,29.5l-2.485-1.281-.794-.41-.2.2.735,1.542h0l.54,1.132.052.059.15.1h0l1.737,1.19.078.026,1.19.065-.566,3.454L101.8,32.784l-.046-.065-.507-.416h0l-1.886-1.555-.241.156.7,2.394.039.137.026.046L101.3,35.4l.046.039.592.332h0l.755.429-1.509,2.738-.228-2.264-.026-.072-1.815-2.446h0l-.618-.826-.273.1L98.4,35.2l.1,1.067.748,2.459.078.091,1.509.755-1.067,1.932-.742,1.008-.02-.761-.039-1.6-.007-.039-1.028-3.2-.033-.052-.429-.481h0l-.494-.546-.26.1-.039,1.685h0L96.64,39.51l.007.046.729,2.641.072.091.663.377h0l.572.325L97.05,45.195l-.852.6.091-.5.455-2.5v-.059l-.618-2.745-.02-.072h0L95.573,38.1l-.293.007-.969,3.968v.059l.124.807h0l.358,2.361.059.1.7.546h0l.2.156-2.6,1.841h0L93.082,48l-.325.176.807-2.634h0l.007-.013.007-.052-.234-4.918h0l-.026-.52-.286-.052-1.984,4.67-.013.065.085,2.5.046.1.26.267h0l.65.663h0l.189.2-3.421,1.873-2.712,1.21.052.286,1.008.052.065-.013,2.238-.924,3.291-1.548-.026.091,1.106,1h0l.247.228h0l.924.846.1.039,2.934-.039h0l.429-.007.052-.013,1.665-.676.013-.273-1.438-.742-1.626-.846h0l-.423-.221-.085-.013-.514.059h0l-2.895.345.319-.15.026-.033.007.007,2.433-2.088,1.281.969h0l.306.228.091.033.917-.013.624-.013,1.607-.026.059-.013,2.725-1.268-.02-.28-1.49-.449h0l-.7-.208-.039-.007-1.19-.02h0l-1.951-.033-.059.007-1.574.592,1.73-1.483.02-.02.95-1.229,1.242,1.1.1.039.488-.007,1.431-.013.69-.007.078-.02,3.252-1.945-.052-.28-.689-.1h0l-.924-.143-2.264-.338-.085.013-.384.169h0l-2.5,1.093-.052.026,1.633-2.108.02-.026.358-.735,1.119.371h0l.585.2h.1l3.044-1.086.059-.039L107.88,38.4h0l.462-.5-.111-.254-1,.026h0l-1.769.046-1.587.4-.371.1-.046.02-1.145.781,1-2.082.013-.033.072-.286.006.013,2.673-.293.085-.039.1-.091h0l.742-.689h0l1.158-1.073.026-.033.865-1.392h0l.442-.716-.182-.221Zm-.891-6.355-.9-.566,1.249-.293Zm1.1-3.734-.143.637-.4-.124Zm-1.938,1.8,1.138-1.041.592.182-.286,1.294-.124.306-1.438.338-.306.072-.039-.02-.182-.111ZM105.291,26.1l.163-.26.462-.111.065-.013,1.2.748-.26.65-2.069,1.06Zm2.055-7.994.046.1-.026.494-.729,3.343-.325.293-.644-2.725Zm-2.621,3.617.735-1.685.6,2.53-1.542,1.392ZM93.114,4.521,91.449,3.012l-.553-1.3L93.8,4.735Zm1.275.384L92.028,2.452l-.794-.826L93.44,2.992l.976,1.88Zm1.425-2.491.143.319-.117-.039Zm.059.611.254.085.585,1.327-.755-.429ZM92.588,7.09l-.553-.442.7.039.208.507Zm.729.2L93.075,6.7l.332.02.364.709Zm2.8.462L94.9,7.741l-.729-.208-.416-.8.885.046,1.685.618.078.1Zm.384-.611-.579-.709-.475-.572.078.065.189.208.41.5.423.527Zm-.189-1.3-.3-1.464.9.514.02.052-.059,1.912Zm.5,1.691.013-.013,1.2,1.509Zm1.6-4.013.013.033-.013-.007Zm-.007.345.072.026.117.039.273.6.345,1.34-.559-.319-.286-.163ZM93.433,9.438l.429.026.13.319Zm1.47.917-.475-.3L94.2,9.49l.546.039.1.059.065.039.442.846ZM97,10.889l-1.249-.319L95.4,9.9l.325.182,1.379.787Zm1.386-.182-.787.1-1.164-.663-1-.572,1.281.085,1.964.69Zm.546-1.451-.364-.735L98.344,6.6l.02-.872L98.5,5.8l.82.468.306,1.177L99.2,9.731l-.254-.462ZM94.578,12.32,95,12.294l.156.39Zm1.268.8-.247-.156-.28-.683.95-.052.6,1.158Zm2.55.657-1.132-.293L96.6,12.2l.553-.033,1.373.072,1.574.7.052.1Zm1.919-1.054L99.19,10.492l.1.124,1.041,2.108Zm1.451-7.09.15,1.639-.637-.364Zm-1.08,2.83.488-1.268.768.442.189,2.647-.859,1.542-.7-.729-.02-.078Zm-.124,4.748h0l.143.286Zm.143-1.542.41.429-.215.39ZM97.167,18.8l-.072-.052.091.007Zm1.008.735-.755-.553.1-.208.9.059Zm.267.15.293-.826.95.065.39,1.652Zm3.259.416-.02.4-1.229.28-.026-.013-.436-1.821.39.026,1.333.813Zm.286.332v-.013l.026-.455.553.338Zm-1.724,3.656L98,22.207l2.225.176.429,1.808Zm.93.254-.208-.059-.442-1.873.755.059Zm4.814-10.863.052.982-.3-.65Zm-.449.6.117.254.4.872-.67,2.9-.078.078-.689-2.895ZM104.01,9.048l.2,1.425-.02.26-.007-.007-.481-1Zm-.468,1.034.6,1.262-.124,1.737-.3-1.2-.351-1.431Zm-.852,1.912.488-1.1.709,2.882L102.5,16l-.208-1.229-.052-.319Zm-5.171,4.579L95.768,15.3l.846-.085,1.47,1.529Zm1.138.338-1.672-1.743.774-.078.956,1.841Zm.462.137-1.034-1.99.046-.007,2.095.533.82.507-1.216,1.164Zm1.2.351-.156-.046,1.151-1.106.124.078.1.312Zm1.372-1.268-.585-1.854.059.117.156.507.371,1.229Zm.917,8.593-1.112-.306.1-1.893,1.815,1.3Zm.137-6.193-.644-2.095v-.052l-.02-.013-.514-1.665.273.507,1.581,4.833.208,1.392Zm.787-.4.891-2.485.663,2.791-1.327,1.373Zm-1.5,8.118.429.371-.761.182-.572-.943ZM99.2,25.017l1.457.637.742,1.223-.644.15Zm2.134,2.765-.377-.488.273-.065.325-.078.4.663Zm.989.052-.293-.488-.163-.267.885-.208,1.08.93.013.111Zm-2.413,1.529-.514-1.086.338.176.247.937Zm.416.163-.234-.885,2.14,1.106.371.676Zm1.945,2.231-1.652-1.132-.2-.735,1.008.4,1.4.546.54.982Zm-.755,3.441-1.386-1.873-.592-2.042,1.47,1.21.755,2.843Zm.618.351-.722-2.725.117.1,1.08,2.895Zm3.74,7.188.221.033-2.856,1.711h-.124Zm-3.493-.351.293-.13,2.218.332.527.078-2.875,1.821L101.4,44.5ZM99.827,43.5l2.134-.93-.28.6-.618,1.333-.332.007-1.047-.924Zm8.567-13.712-1.418,1.932-.494.13-.085-.033-.085-.033,1.841-2.348.878-1.119Zm-3.077.69,1.568-1.607,2-.859L106.1,31.561l-.078.1-.611-.241-.4-.163Zm-.429,1.067.937.371-.111.137-.611.163-.293-.481Zm-.215.533.13.215-.241.065Zm-.748-8.729.345,2.264.091,2.251-.007-.007Zm-5.36,10.6.241.319-.169.364Zm.95,4.631-.722-2.348-.1-1.015.2-.423L99,34.54l1.639,2.212.254,2.524ZM97,36.3l.169.189-.182.4Zm.637,5.744-.709-2.563.039-1.841.423-.9.26.286,1.008,3.148L98.7,41.7l-.553.631Zm.774.436.013-.02.286-.325.013.52ZM94.6,42.112l.826-3.4.364,1.229L94.65,42.4ZM95.632,45.6l-.013.013-.546-.423-.345-2.257,1.177-2.53.527,2.348-.442,2.433Zm.254.163-.013.052-.02-.013.013-.013ZM91.4,47.146l-.085-2.407,1.607-3.779-1.49,6.219Zm.722.735-.442-.449,1.392-5.809.182,3.831Zm.5-.371-.208.676-.072-.072.007-.013Zm6.166,2.68,1.008.52-1.333.54H98.3Zm-1.7-.885,1.431.742-.026.059-.533,1.151-2.778.033-.722-.657L97.1,49.306Zm-.885-.182.436-.052.124.065-2.543,1.281-.026-.026,1.333-.846Zm-.7.078-1.548.982-.774-.7Zm7.65-2.5-2.335,1.086L99.5,47.8l.065-.137,2.556-1.288Zm-2.895-.553,1.1.02.319.1-1.932.976.286-.611Zm-.943,1.307-.735.371-.833.013-.091-.065,2.14-1.353Zm-1.054-1.346,1.425.026-2.283,1.444L96.4,46.808Zm9.607-8.15-.124.13-.137-.124Zm-3.864.442,1.47-.377,1.7-.046.377.332-1.184,1.275-2.96,1.06-.377-.124Zm-.416.1.039-.013-.9,1.925-.872-.286.377-.709Zm-.566-1.678-2,4.157-2.888,3.727L93.42,48.76l-4.059,1.906-2.2.9-.351-.02,2.147-.963,4.261-2.335.091-.065h0l3.974-2.752.033-.033,2.784-3.682,3.057-5.418Zm.163-.663,1.047-6.01.169-.976.065,1.73Zm.449.143.637-1.2.234-.176,1.353,1.132Zm2.5-.4-.6-.5-.781-.65,1.073-.794.384.637.481.8Zm1.789-1.659-1.008.93-.852-1.405.137-.1,2.029-.82.163.065.293.111Zm.917-1.477-.2-.078.338-.137Z" transform="translate(320.35 592.944)" fill="url(#linear-gradient)"/>
  </g>
</svg>
